<?xml version="1.0" encoding="UTF-8"?>
<svg id="Layer_2" data-name="Layer 2" xmlns="http://www.w3.org/2000/svg" viewBox="0 0 140 60">
  <defs>
    <style>
      .cls-1 {
        fill: #f08336;
      }

      .cls-1, .cls-2, .cls-3, .cls-4, .cls-5, .cls-6, .cls-7, .cls-8 {
        stroke-width: 0px;
      }

      .cls-2 {
        fill: none;
      }

      .cls-3 {
        fill: #e95038;
      }

      .cls-4 {
        fill: #b9e0f2;
      }

      .cls-5 {
        fill: #0c95d3;
      }

      .cls-6 {
        fill: #9eb950;
      }

      .cls-7 {
        fill: #344c7e;
      }

      .cls-8 {
        fill: #344d7f;
      }
    </style>
  </defs>
  <g id="Logo-SiteLagoa">
    <g id="Logo-SiteLagoa-2" data-name="Logo-SiteLagoa">
      <g>
        <path class="cls-7" d="M9.13,41.33c.05.78.49,2.85,1.7,5.02.52.93,1.56,2.58,3.34,4.08.69.58,1.41,1.09,2.18,1.53,1.07.62,1.97.95,2.31,1.08.51.18,2.11.74,4,.79.9.02,5.81.14,7.25-2.84.64-1.32.31-2.67.15-3.17-.61-1.91-2.48-3.41-4.1-3.36-.8.02-1.6.02-2.4.01-2.07-.02-3.57-1-4.57-2.78-.47-.84-.56-1.75-.56-2.7,0-5.69-.15-17.44.01-24.76.02-.81-.01-2.32-1.03-3.44-1.73-1.91-5.73-2-7.36-.21-.81.89-.86,2.06-.87,2.63-.3,9.93-.13,25.14-.13,25.47,0,.64,0,1.44,0,1.44h0s.07,1.16.08,1.22Z"/>
        <path class="cls-4" d="M123.63,6.22s0-.03,0-.05h.56s0,.03,0,.05c-.19.14-.38.13-.56,0Z"/>
        <path class="cls-3" d="M63.08,31.48c-.89,0-1.78,0-2.67,0-.62,0-1.21-.11-1.74-.42-1.29-.74-2.03-1.82-2.04-3.35,0-.28,0-.56,0-.84-.07-1.87,1.63-3.67,3.55-3.75,1.8-.07,3.59-.06,5.37.18,1.21.17,1.87.92,1.98,2.13.09.97.03,1.95.1,2.93.21,2.9,1.14,5.54,2.82,7.9.42.59.43.71-.04,1.25-2.38,2.73-5.32,4.51-8.89,5.16-4.72.87-9.05-.11-12.87-3.04-3.44-2.64-5.53-6.14-6.12-10.46-1.15-8.36,4.28-16.05,12.58-17.8,3.36-.71,6.7-.57,9.89.78,1.81.76,3.07,2.12,3.38,4.16.35,2.21-1.17,4.3-3.39,4.7-1.14.21-2.24.03-3.31-.38-1.84-.7-3.68-.78-5.52-.04-2.6,1.05-4.18,3.55-4.12,6.47.05,2.62,1.22,4.59,3.48,5.87,2.36,1.33,5.63.73,7.45-1.27.05-.05.12-.09.12-.19Z"/>
        <path class="cls-6" d="M97.58,16.72c-.71-.88-1.5-1.68-2.38-2.39-3.96-3.19-8.46-4.28-13.42-3.33-3.61.7-6.63,2.49-9.02,5.29-3.19,3.73-4.46,8.06-3.77,12.91.51,3.61,2.14,6.69,4.77,9.22,3.13,3.01,6.89,4.51,11.23,4.55.76.01,1.51-.04,2.26-.14,3.46-.49,6.44-1.98,8.96-4.39.37-.35.56-.76.61-1.24.03-.29.05-.57.05-.86,0-3.89,0-7.78,0-11.67,0-2.06.25-4.08,1.04-6,.3-.72.15-1.36-.33-1.95ZM89.77,30.75c-1.38,1.77-3.2,2.57-5.45,2.34-2.75-.29-5.01-2.53-5.36-5.29-.04-.34-.05-.69-.06-.9-.07-3.22,2.14-5.55,4.3-6.21,3.54-1.09,7.24,1.25,7.78,4.93.28,1.87-.02,3.62-1.21,5.14Z"/>
        <g>
          <path class="cls-5" d="M131,15.94c0,1.92-1.81,3.45-3.62,3.07-.44-.09-.84-.28-1.24-.49-1.5-.8-2.85-1.81-4.18-2.86-.08-.07-.18-.12-.02-.22,1.66-.97,3.33-1.92,5.18-2.5,1.84-.58,3.88.88,3.89,2.99Z"/>
          <path class="cls-5" d="M123.63,6.22c.19,0,.38,0,.56,0,2.18.23,3.48,2.47,2.56,4.43-.23.5-.63.87-1.05,1.22-1.34,1.13-2.85,2.02-4.37,2.88-.02.01-.05.01-.09.02-.13-.67-.21-1.34-.28-2.01-.12-1.18-.19-2.37-.13-3.56.09-1.9,1.54-2.85,2.79-2.97Z"/>
          <path class="cls-5" d="M123.06,31.08c0-2.17.01-4.34,0-6.5-.02-1.94-.26-3.86-.93-5.7-1.14-3.14-3.15-5.49-6.26-6.82-2.32-.99-4.77-1.14-7.23-.79-4.28.62-7.22,3.03-8.92,6.97-.91,2.1-1.18,4.33-1.19,6.6,0,4.57,0,9.14,0,13.71,0,.29,0,.58.07.86.32,1.51,1.2,2.58,2.58,3.22,1.2.55,2.49.49,3.73.23,1.98-.41,3.36-2.24,3.36-4.26,0-1.86,0-3.72,0-5.58,0-.22.05-.28.27-.28,1.5.01,3,.01,4.49,0,.23,0,.3.05.3.29-.01,1.82,0,3.65,0,5.47,0,.31,0,.62.07.92.32,1.51,1.2,2.58,2.59,3.21,1.2.55,2.49.49,3.73.23,1.97-.42,3.35-2.24,3.36-4.26,0-2.5,0-5.01,0-7.51h0ZM113.09,24.69c-.76,0-1.52,0-2.29,0s-1.52,0-2.29,0c-.19,0-.26-.05-.25-.25.02-.71-.03-1.41.16-2.1.34-1.2,1.15-1.82,2.39-1.81,1.22,0,2.02.63,2.35,1.82.2.72.15,1.46.16,2.19,0,.18-.13.15-.23.15Z"/>
        </g>
        <path class="cls-1" d="M44.51,37.66c0-.17-.04-.3-.14-.43-.54-.68-1.01-1.4-1.42-2.17-1.8-3.34-2.42-6.88-1.86-10.63.32-2.15,1.04-4.16,2.15-6.03.06-.1.09-.19.04-.31-1.21-2.74-3.11-4.81-5.89-6.01-2.35-1.01-4.82-1.17-7.31-.82-3.97.56-6.83,2.72-8.61,6.29-.98,1.96-1.41,4.08-1.45,6.25-.05,2.49-.01,4.99-.01,7.48h-.01c0,2.44,0,4.88,0,7.31,0,1.75.86,2.99,2.33,3.86,1.18.7,2.49.6,3.76.44,1.99-.25,3.69-2.2,3.65-4.33-.03-1.86,0-3.72-.01-5.58,0-.21.05-.26.26-.26,1.51,0,3.01,0,4.52,0,.23,0,.3.06.3.29,0,1.88.02,3.76-.01,5.64-.03,1.82,1.36,3.67,3.29,4.19.7.19,1.41.09,2.11.12,1.89.07,3.79-1.46,4.24-3.4.15-.64.08-1.28.1-1.92ZM34.78,24.54c0,.18-.13.15-.23.15-.77,0-1.54,0-2.32,0-.75,0-1.51,0-2.26,0-.21,0-.26-.06-.26-.27,0-.72-.02-1.43.18-2.13.33-1.15,1.15-1.76,2.34-1.77,1.21,0,2.01.59,2.36,1.74.22.74.19,1.51.19,2.27Z"/>
        <g>
          <path class="cls-8" d="M45.32,46.9h2.43c.36,0,.67.06.94.18.27.12.49.27.67.46.18.19.32.41.41.66.09.25.14.5.14.75s-.04.51-.14.75c-.09.24-.23.46-.41.65s-.4.34-.67.46c-.27.12-.58.18-.93.18h-1.69v2.3h-.75v-6.38ZM47.76,50.22c.23,0,.44-.04.62-.11.18-.07.32-.17.44-.29s.2-.26.26-.41c.06-.15.09-.31.09-.47s-.03-.32-.09-.47c-.06-.15-.15-.29-.27-.41-.12-.12-.26-.22-.44-.29-.17-.07-.38-.11-.61-.11h-1.69v2.57h1.69Z"/>
          <path class="cls-8" d="M55.2,53.28h-.79l-.74-2.05h-2.46c-.12.34-.24.68-.36,1.02-.12.35-.24.69-.36,1.02h-.8l2.29-6.38h.92l2.31,6.38ZM53.41,50.48c-.09-.25-.17-.48-.25-.7-.08-.22-.15-.44-.23-.67-.08-.22-.15-.45-.23-.68-.08-.23-.17-.47-.26-.72-.16.47-.32.93-.48,1.37-.16.45-.32.91-.5,1.39h1.95Z"/>
          <path class="cls-8" d="M56.65,50.67v2.6h-.76v-6.38h2.43c.31,0,.59.04.86.11.26.07.49.18.68.34.19.15.35.35.46.59.11.24.17.53.18.87,0,.32-.05.59-.15.82-.1.23-.24.42-.41.56-.17.15-.38.26-.62.34-.24.08-.49.12-.76.14l2.05,2.61h-.93l-2.06-2.6h-.98ZM58.34,49.97c.22,0,.41-.02.59-.06.17-.04.32-.1.45-.19.12-.09.22-.21.28-.36.07-.15.1-.33.1-.55s-.03-.41-.1-.55c-.07-.15-.17-.27-.29-.36-.13-.09-.28-.15-.45-.19-.17-.04-.36-.05-.57-.05h-1.69v2.32h1.69Z"/>
          <path class="cls-8" d="M66.38,51.36c0,.25-.04.48-.13.68-.08.2-.2.38-.34.54l.5.63-.52.37-.48-.59c-.23.13-.48.22-.75.29-.27.07-.55.1-.83.1-.32,0-.63-.04-.94-.13-.31-.08-.58-.21-.82-.38-.24-.17-.43-.38-.58-.63-.14-.25-.22-.54-.22-.88v-2.55c0-.33.07-.62.22-.87.14-.25.34-.46.58-.63.24-.17.51-.29.82-.37.31-.08.62-.13.94-.13s.63.04.94.13c.31.08.58.21.82.37.24.17.43.37.58.63.15.25.22.54.22.87v2.55ZM65.63,51.36v-2.55c0-.22-.05-.41-.16-.57-.11-.16-.24-.29-.41-.39-.17-.1-.36-.18-.58-.23-.22-.05-.44-.07-.66-.07s-.45.03-.66.08c-.21.05-.4.13-.57.23-.17.1-.3.23-.41.39-.1.16-.15.35-.15.56v2.55c0,.21.05.39.15.55.1.16.24.29.41.39.17.11.36.18.58.23.22.05.44.08.67.08.2,0,.4-.01.6-.04.2-.02.37-.07.54-.14l-.53-.67.52-.39.5.64c.11-.18.17-.4.17-.66Z"/>
          <path class="cls-8" d="M68.25,51.33c0,.22.05.4.14.56.1.16.22.29.38.4.16.11.33.19.53.24.2.05.4.08.61.08s.41-.03.61-.08c.2-.05.38-.13.54-.24.16-.11.28-.24.38-.4.1-.16.14-.35.14-.56v-4.43h.76v4.43c0,.34-.07.63-.21.89-.14.26-.32.47-.55.64-.23.17-.49.3-.78.38-.29.08-.59.13-.89.13s-.6-.04-.89-.13c-.29-.08-.55-.21-.77-.38-.23-.17-.41-.38-.55-.64-.14-.26-.21-.55-.21-.89v-4.43h.76v4.43Z"/>
          <path class="cls-8" d="M74.38,49.71h3.07v.76h-3.07v2.05h3.33v.76h-4.09v-6.38h4.09v.76h-3.33v2.05Z"/>
          <path class="cls-8" d="M79.27,48.62c0,.16.03.29.1.39.08.12.2.22.35.29.15.08.32.13.51.18.19.04.39.08.6.13.28.05.55.12.83.18.28.07.52.17.74.32.22.14.39.33.51.57.11.21.16.48.16.8v.14c-.02.29-.09.55-.23.77-.14.22-.31.4-.53.55-.22.14-.46.25-.73.32-.27.07-.55.11-.83.11-.24,0-.48-.03-.72-.09-.24-.06-.47-.14-.68-.26-.21-.11-.4-.26-.57-.43s-.3-.37-.4-.6l.69-.32c.07.16.16.29.28.41.12.11.26.21.41.29.15.08.32.14.49.18.17.04.34.06.52.06.19,0,.37-.02.55-.06.18-.04.34-.11.49-.19.14-.09.26-.2.35-.32.09-.13.14-.28.15-.46,0-.04,0-.08,0-.12,0-.17-.04-.32-.11-.44-.08-.14-.21-.26-.36-.35-.16-.09-.34-.16-.55-.21-.21-.05-.43-.1-.65-.15-.26-.05-.51-.12-.77-.19-.25-.07-.48-.17-.68-.31-.2-.13-.36-.3-.49-.51-.13-.21-.19-.47-.19-.79.02-.28.09-.52.23-.73.13-.21.3-.39.51-.54.21-.14.44-.25.7-.33.26-.08.53-.11.81-.11.23,0,.47.03.71.08.24.05.46.14.67.25.21.11.4.25.56.42.17.17.3.36.4.59l-.68.31c-.07-.15-.16-.28-.27-.39-.12-.11-.25-.21-.4-.28-.15-.08-.31-.14-.47-.18-.17-.04-.34-.06-.5-.06-.19,0-.37.02-.54.06-.17.04-.33.11-.47.19-.14.08-.25.19-.34.32-.09.13-.14.27-.15.44v.07Z"/>
          <path class="cls-8" d="M86.77,49.71h3.07v.76h-3.07v2.05h3.33v.76h-4.09v-6.38h4.09v.76h-3.33v2.05Z"/>
          <path class="cls-8" d="M93.8,53.28h-.76v-6.38h.76v2.82h3.33v-2.82h.76v6.38h-.76v-2.81h-3.33v2.81Z"/>
          <path class="cls-8" d="M99.04,48.81c0-.33.07-.62.22-.87s.34-.46.58-.63c.24-.17.51-.29.82-.37.31-.08.62-.13.94-.13s.63.04.94.13c.31.08.58.21.82.37.24.17.43.37.58.63.15.25.22.54.22.87v2.55c0,.34-.07.63-.22.88-.15.25-.34.46-.58.63-.24.17-.51.29-.82.38-.31.08-.62.13-.94.13s-.63-.04-.94-.13c-.31-.08-.58-.21-.82-.38-.24-.17-.43-.38-.58-.63-.14-.25-.22-.54-.22-.88v-2.55ZM99.79,51.35c0,.21.05.39.15.55.1.16.24.29.41.39.17.11.36.18.58.24.22.05.44.08.67.08s.44-.03.66-.08c.22-.05.41-.13.58-.24.17-.11.31-.24.41-.39.1-.16.15-.34.15-.55v-2.54c0-.22-.05-.41-.16-.57-.11-.16-.24-.29-.41-.39-.17-.1-.36-.18-.58-.23-.22-.05-.44-.07-.66-.07s-.45.03-.66.08c-.21.05-.4.13-.57.23-.17.11-.3.24-.41.39-.1.16-.15.34-.15.56v2.54Z"/>
          <path class="cls-8" d="M107.41,47.66v5.62h-.76v-5.62h-2.05v-.76h4.85v.76h-2.05Z"/>
          <path class="cls-8" d="M111.01,49.71h3.07v.76h-3.07v2.05h3.33v.76h-4.09v-6.38h4.09v.76h-3.33v2.05ZM113.47,45.25l-.92,1.2h-.79l.77-1.2h.95Z"/>
          <path class="cls-8" d="M116.14,53.28h-.75v-6.38h.75v6.38Z"/>
          <path class="cls-8" d="M117.97,48.62c0,.16.03.29.1.39.08.12.2.22.35.29.15.08.32.13.51.18.19.04.39.08.6.13.28.05.55.12.83.18.28.07.52.17.74.32.22.14.39.33.51.57.11.21.16.48.16.8v.14c-.02.29-.09.55-.23.77-.14.22-.31.4-.53.55-.22.14-.46.25-.73.32-.27.07-.55.11-.83.11-.24,0-.48-.03-.72-.09-.24-.06-.47-.14-.68-.26-.21-.11-.4-.26-.57-.43s-.3-.37-.4-.6l.69-.32c.07.16.16.29.28.41.12.11.26.21.41.29.15.08.32.14.49.18.17.04.34.06.52.06.19,0,.37-.02.55-.06.18-.04.34-.11.49-.19.14-.09.26-.2.35-.32.09-.13.14-.28.15-.46,0-.04,0-.08,0-.12,0-.17-.04-.32-.11-.44-.08-.14-.21-.26-.36-.35-.16-.09-.34-.16-.55-.21-.21-.05-.43-.1-.65-.15-.26-.05-.51-.12-.77-.19-.25-.07-.48-.17-.68-.31-.2-.13-.36-.3-.49-.51-.13-.21-.19-.47-.19-.79.02-.28.09-.52.23-.73.13-.21.3-.39.51-.54.21-.14.44-.25.7-.33.26-.08.53-.11.81-.11.23,0,.47.03.71.08.24.05.46.14.67.25.21.11.4.25.56.42.17.17.3.36.4.59l-.68.31c-.07-.15-.16-.28-.27-.39-.12-.11-.25-.21-.4-.28-.15-.08-.31-.14-.47-.18-.17-.04-.34-.06-.5-.06-.19,0-.37.02-.54.06-.17.04-.33.11-.47.19-.14.08-.25.19-.34.32-.09.13-.14.27-.15.44v.07Z"/>
        </g>
      </g>
      <rect class="cls-2" width="140" height="60" rx="5" ry="5"/>
    </g>
  </g>
</svg>